<svg width="236" height="50" viewBox="0 0 236 50" fill="none" xmlns="http://www.w3.org/2000/svg">
<path d="M13.127 7.72C12.711 8.728 11.959 9.52 10.871 10.096C9.79903 10.672 8.48703 10.96 6.93503 10.96C5.62303 10.96 4.47103 10.752 3.47903 10.336C2.50303 9.92 1.75103 9.344 1.22303 8.608C0.695031 7.856 0.431031 6.984 0.431031 5.992C0.431031 5.016 0.695031 4.152 1.22303 3.4C1.75103 2.648 2.50303 2.064 3.47903 1.648C4.47103 1.232 5.62303 1.024 6.93503 1.024C8.42303 1.024 9.69503 1.288 10.751 1.816C11.807 2.344 12.559 3.08 13.007 4.024H16.247V0.999999H20.303V11.032H16.247V7.72H13.127ZM4.43903 5.992C4.43903 6.536 4.66303 6.968 5.11103 7.288C5.55903 7.608 6.16703 7.768 6.93503 7.768C7.70303 7.768 8.31103 7.608 8.75903 7.288C9.20703 6.968 9.43103 6.536 9.43103 5.992C9.43103 5.448 9.20703 5.016 8.75903 4.696C8.31103 4.376 7.70303 4.216 6.93503 4.216C6.16703 4.216 5.55903 4.376 5.11103 4.696C4.66303 5.016 4.43903 5.448 4.43903 5.992ZM20.519 18.688V21.496H2.23103V15.376H16.295V14.56H2.18303V11.752H20.303V17.872H6.23903V18.688H20.519ZM43.869 0.999999V21.496H40.077V0.999999H43.869ZM34.917 1.096H38.661V21.136H34.917V12.544H33.261V8.704H34.917V1.096ZM29.133 17.08C29.965 17.08 30.813 17.024 31.677 16.912C32.557 16.784 33.301 16.608 33.909 16.384V19.792C33.333 20.032 32.565 20.216 31.605 20.344C30.645 20.472 29.701 20.536 28.773 20.536H23.829V9.28H28.653V4.936H23.829V1.48H32.397V12.688H27.597V17.08H29.133ZM59.6349 10.84H47.1309V1.24H51.0669V2.944H55.6989V1.24H59.6349V4.072H62.4189V0.999999H66.4749V11.272H62.4189V7.768H59.6349V10.84ZM55.6989 7.72V5.992H51.0669V7.72H55.6989ZM66.6909 18.784V21.496H48.1629V15.496H62.4909V14.704H48.1149V11.992H66.4749V17.992H52.1469V18.784H66.6909ZM90.0408 0.999999V21.496H86.2488V0.999999H90.0408ZM81.0888 1.096H84.8328V21.136H81.0888V12.544H79.4328V8.704H81.0888V1.096ZM75.3048 17.08C76.1368 17.08 76.9848 17.024 77.8488 16.912C78.7288 16.784 79.4728 16.608 80.0808 16.384V19.792C79.5048 20.032 78.7368 20.216 77.7768 20.344C76.8168 20.472 75.8728 20.536 74.9448 20.536H70.0008V9.28H74.8248V4.936H70.0008V1.48H78.5688V12.688H73.7688V17.08H75.3048ZM115.005 12.424H100.581V8.656H115.005V5.272H100.581V1.48H119.061V15.688H115.005V12.424ZM120.189 16.984V20.776H99.4533V16.984H120.189ZM142.363 21.496H138.307V0.999999H142.363V21.496ZM135.331 12.76H127.483V16.888H131.923C132.883 16.888 133.851 16.8 134.827 16.624C135.803 16.432 136.603 16.192 137.227 15.904V19.552C136.619 19.856 135.811 20.096 134.803 20.272C133.811 20.448 132.795 20.536 131.755 20.536H123.451V9.16H131.299V5.128H123.403V1.48H135.331V12.76ZM155.849 8.8C154.633 10.432 153.169 11.72 151.457 12.664C149.761 13.592 147.953 14.064 146.033 14.08V10.24C147.393 10.24 148.681 9.848 149.897 9.064C151.129 8.264 152.169 7.16 153.017 5.752C153.865 4.328 154.409 2.72 154.649 0.927999L158.777 1.576C158.585 2.984 158.209 4.336 157.649 5.632L166.385 10.888L164.249 14.176L155.849 8.8ZM145.625 16.984H166.361V20.776H145.625V16.984ZM190.359 12.424H187.959V21.496H183.903V0.999999H187.959V8.488H190.359V12.424ZM169.407 1.48H181.335V20.536H169.407V1.48ZM173.463 16.768H177.279V5.248H173.463V16.768ZM202.021 8.8C200.805 10.432 199.341 11.72 197.629 12.664C195.933 13.592 194.125 14.064 192.205 14.08V10.24C193.565 10.24 194.853 9.848 196.069 9.064C197.301 8.264 198.341 7.16 199.189 5.752C200.037 4.328 200.581 2.72 200.821 0.927999L204.949 1.576C204.757 2.984 204.381 4.336 203.821 5.632L212.557 10.888L210.421 14.176L202.021 8.8ZM191.797 16.984H212.533V20.776H191.797V16.984Z" fill="#D9615F"/>
<path d="M235.283 0.999999V21.496H231.491V0.999999H235.283ZM226.331 1.096H230.075V21.136H226.331V12.688H224.867C224.739 15.52 224.259 17.576 223.427 18.856C222.611 20.136 221.435 20.776 219.899 20.776C218.235 20.776 216.979 20.008 216.131 18.472C215.299 16.92 214.883 14.432 214.883 11.008C214.883 7.6 215.299 5.12 216.131 3.568C216.979 2.016 218.235 1.24 219.899 1.24C221.371 1.24 222.523 1.848 223.355 3.064C224.187 4.264 224.683 6.176 224.843 8.8H226.331V1.096ZM219.899 17.104C220.347 17.104 220.667 16.624 220.859 15.664C221.051 14.704 221.147 13.152 221.147 11.008C221.147 8.864 221.051 7.312 220.859 6.352C220.667 5.392 220.347 4.912 219.899 4.912C219.451 4.912 219.131 5.392 218.939 6.352C218.747 7.312 218.651 8.864 218.651 11.008C218.651 13.152 218.747 14.704 218.939 15.664C219.131 16.624 219.451 17.104 219.899 17.104ZM25.5018 44.984V48.776H4.76584V44.984H13.0698V42.104C11.5658 41.912 10.2458 41.52 9.10984 40.928C7.97384 40.336 7.09384 39.584 6.46984 38.672C5.86184 37.76 5.55784 36.744 5.55784 35.624C5.55784 34.344 5.95784 33.208 6.75784 32.216C7.55784 31.208 8.68584 30.424 10.1418 29.864C11.5978 29.304 13.2618 29.024 15.1338 29.024C17.0058 29.024 18.6698 29.304 20.1258 29.864C21.5818 30.424 22.7098 31.208 23.5098 32.216C24.3098 33.208 24.7098 34.344 24.7098 35.624C24.7098 36.744 24.3978 37.76 23.7738 38.672C23.1658 39.584 22.2938 40.336 21.1578 40.928C20.0218 41.52 18.7018 41.912 17.1978 42.104V44.984H25.5018ZM9.85384 35.624C9.85384 36.2 10.0778 36.712 10.5258 37.16C10.9738 37.608 11.5978 37.96 12.3978 38.216C13.1978 38.456 14.1098 38.576 15.1338 38.576C16.1578 38.576 17.0698 38.456 17.8698 38.216C18.6698 37.96 19.2938 37.608 19.7418 37.16C20.1898 36.712 20.4138 36.2 20.4138 35.624C20.4138 34.744 19.9258 34.032 18.9498 33.488C17.9738 32.944 16.7018 32.672 15.1338 32.672C13.5658 32.672 12.2938 32.944 11.3178 33.488C10.3418 34.032 9.85384 34.744 9.85384 35.624ZM47.6758 44.168H43.6198V29H47.6758V44.168ZM35.2678 37.232C34.3718 38.464 33.3078 39.448 32.0758 40.184C30.8438 40.92 29.5238 41.32 28.1158 41.384V37.616C29.1718 37.488 30.1158 37.04 30.9478 36.272C31.7958 35.488 32.4598 34.472 32.9398 33.224C33.4198 31.96 33.6678 30.584 33.6838 29.096L37.7638 29.336C37.7638 30.968 37.4918 32.536 36.9478 34.04L42.8518 38.216L40.4758 41.096L35.2678 37.232ZM47.9638 45.848V49.496H29.3398V42.32H33.4678V45.848H47.9638ZM69.0643 37.04C68.1043 38.448 66.6723 39.512 64.7683 40.232C62.8643 40.952 60.6563 41.312 58.1443 41.312V37.736C59.7283 37.72 61.1283 37.528 62.3443 37.16C63.5763 36.776 64.5283 36.248 65.2003 35.576C65.8883 34.904 66.2323 34.112 66.2323 33.2V32.744H58.1443V29.24H70.3603V32.528C70.3603 32.88 70.3523 33.144 70.3363 33.32H73.5283V29H77.5843V42.992H73.5283V37.04H69.0643ZM77.1043 49.736L68.1763 46.496C67.0243 47.472 65.6483 48.216 64.0483 48.728C62.4643 49.24 60.8003 49.496 59.0563 49.496V45.704C60.3523 45.704 61.5603 45.528 62.6803 45.176C63.8163 44.808 64.7683 44.288 65.5363 43.616C66.3043 42.928 66.8163 42.12 67.0723 41.192L71.1283 41.912C70.9683 42.488 70.7523 43.048 70.4803 43.592L78.4963 46.136L77.1043 49.736ZM91.1182 28.664C93.9982 28.664 96.2702 28.968 97.9342 29.576C99.5982 30.184 100.43 31.168 100.43 32.528C100.43 33.888 99.5982 34.872 97.9342 35.48C96.2702 36.088 93.9982 36.392 91.1182 36.392C88.2382 36.392 85.9662 36.088 84.3022 35.48C82.6382 34.872 81.8062 33.888 81.8062 32.528C81.8062 31.168 82.6382 30.184 84.3022 29.576C85.9662 28.968 88.2382 28.664 91.1182 28.664ZM91.1182 31.568C89.5342 31.568 88.3022 31.648 87.4222 31.808C86.5422 31.968 86.1022 32.208 86.1022 32.528C86.1022 33.168 87.7742 33.488 91.1182 33.488C94.4622 33.488 96.1342 33.168 96.1342 32.528C96.1342 32.208 95.6942 31.968 94.8142 31.808C93.9342 31.648 92.7022 31.568 91.1182 31.568ZM101.486 40.016H80.7502V37.064H101.486V40.016ZM100.286 46.16H85.9342V46.856H100.502V49.496H81.9742V44.048H96.3262V43.352H81.9262V40.808H100.286V46.16ZM124.195 32.648H110.515V29.792H115.243V28.376H119.419V29.792H124.195V32.648ZM132.211 33.728V37.424H129.859V44.816H125.803V29H129.859V33.728H132.211ZM124.627 42.728C123.475 43.208 121.683 43.448 119.251 43.448H110.563V40.424H115.339V39.488C114.075 39.296 113.075 38.936 112.339 38.408C111.619 37.864 111.259 37.184 111.259 36.368C111.259 35.344 111.819 34.544 112.939 33.968C114.075 33.392 115.555 33.104 117.379 33.104C119.203 33.104 120.675 33.392 121.795 33.968C122.931 34.544 123.499 35.344 123.499 36.368C123.499 37.2 123.123 37.88 122.371 38.408C121.635 38.936 120.627 39.296 119.347 39.488V40.424C120.387 40.424 121.379 40.368 122.323 40.256C123.267 40.128 124.035 39.944 124.627 39.704V42.728ZM115.051 36.368C115.051 36.576 115.259 36.736 115.675 36.848C116.091 36.944 116.659 36.992 117.379 36.992C118.099 36.992 118.667 36.944 119.083 36.848C119.499 36.736 119.707 36.576 119.707 36.368C119.707 35.952 118.931 35.744 117.379 35.744C115.827 35.744 115.051 35.952 115.051 36.368ZM115.867 46.352H130.147V49.496H111.763V44.264H115.867V46.352ZM149.585 35.192V33.56H147.329L147.089 30.104H149.585V29H153.569V40.28H149.585V38.648H147.089L147.329 35.192H149.585ZM146.657 34.424C146.657 35.496 146.385 36.44 145.841 37.256C145.297 38.072 144.529 38.704 143.537 39.152C142.561 39.6 141.425 39.824 140.129 39.824C138.833 39.824 137.689 39.6 136.697 39.152C135.721 38.704 134.961 38.072 134.417 37.256C133.873 36.44 133.601 35.496 133.601 34.424C133.601 33.352 133.873 32.408 134.417 31.592C134.961 30.776 135.721 30.144 136.697 29.696C137.689 29.248 138.833 29.024 140.129 29.024C141.425 29.024 142.561 29.248 143.537 29.696C144.529 30.144 145.297 30.776 145.841 31.592C146.385 32.408 146.657 33.352 146.657 34.424ZM137.633 34.424C137.633 35.08 137.849 35.6 138.281 35.984C138.729 36.352 139.345 36.536 140.129 36.536C140.913 36.536 141.521 36.352 141.953 35.984C142.401 35.6 142.625 35.08 142.625 34.424C142.625 33.768 142.401 33.256 141.953 32.888C141.521 32.504 140.913 32.312 140.129 32.312C139.345 32.312 138.729 32.504 138.281 32.888C137.849 33.256 137.633 33.768 137.633 34.424ZM144.521 40.568C147.321 40.568 149.561 40.936 151.241 41.672C152.921 42.392 153.761 43.552 153.761 45.152C153.761 46.752 152.921 47.912 151.241 48.632C149.561 49.368 147.321 49.736 144.521 49.736C141.721 49.736 139.481 49.368 137.801 48.632C136.121 47.912 135.281 46.752 135.281 45.152C135.281 43.552 136.121 42.392 137.801 41.672C139.481 40.936 141.721 40.568 144.521 40.568ZM144.521 46.496C145.977 46.496 147.153 46.392 148.049 46.184C148.945 45.96 149.393 45.616 149.393 45.152C149.393 44.704 148.937 44.368 148.025 44.144C147.129 43.92 145.961 43.808 144.521 43.808C143.081 43.808 141.905 43.92 140.993 44.144C140.097 44.368 139.649 44.704 139.649 45.152C139.649 45.616 140.097 45.96 140.993 46.184C141.889 46.392 143.065 46.496 144.521 46.496ZM170.559 33.128H156.543V30.2H161.487V28.64H165.615V30.2H170.559V33.128ZM178.383 36.272H175.983V40.592H171.927V29H175.983V32.48H178.383V36.272ZM163.551 40.928C161.775 40.928 160.287 40.608 159.087 39.968C157.903 39.328 157.311 38.432 157.311 37.28C157.311 36.128 157.903 35.232 159.087 34.592C160.287 33.952 161.775 33.632 163.551 33.632C165.327 33.632 166.807 33.952 167.991 34.592C169.175 35.232 169.767 36.128 169.767 37.28C169.767 38.432 169.175 39.328 167.991 39.968C166.807 40.608 165.327 40.928 163.551 40.928ZM163.551 36.392C162.799 36.392 162.207 36.472 161.775 36.632C161.343 36.776 161.127 36.992 161.127 37.28C161.127 37.568 161.343 37.792 161.775 37.952C162.207 38.096 162.799 38.168 163.551 38.168C164.303 38.168 164.895 38.096 165.327 37.952C165.759 37.792 165.975 37.568 165.975 37.28C165.975 36.992 165.759 36.776 165.327 36.632C164.895 36.472 164.303 36.392 163.551 36.392ZM172.047 41.312H175.983V49.496H157.887V41.312H161.823V42.464H172.047V41.312ZM172.047 46.472V45.32H161.823V46.472H172.047ZM199.645 49.496H195.589V29H199.645V49.496ZM184.909 44.84H189.205C190.181 44.84 191.149 44.752 192.109 44.576C193.085 44.4 193.885 44.16 194.509 43.856V47.552C193.901 47.856 193.117 48.096 192.157 48.272C191.197 48.448 190.213 48.536 189.205 48.536H180.733V29.36H184.909V44.84ZM224.554 40.424H222.154V49.496H218.098V29H222.154V36.488H224.554V40.424ZM211.834 44.864C212.826 44.864 213.802 44.784 214.762 44.624C215.738 44.464 216.53 44.24 217.138 43.952V47.576C216.546 47.88 215.722 48.112 214.666 48.272C213.626 48.448 212.586 48.536 211.546 48.536H203.602V29.48H215.53V33.152H207.73V44.864H211.834ZM230.096 42.68H227.12L226.016 29.6H231.2L230.096 42.68ZM228.608 44.432C229.344 44.432 229.952 44.672 230.432 45.152C230.912 45.632 231.152 46.24 231.152 46.976C231.152 47.712 230.912 48.312 230.432 48.776C229.952 49.256 229.344 49.496 228.608 49.496C227.872 49.496 227.264 49.256 226.784 48.776C226.304 48.312 226.064 47.712 226.064 46.976C226.064 46.24 226.304 45.632 226.784 45.152C227.264 44.672 227.872 44.432 228.608 44.432Z" fill="white"/>
</svg>
